<svg width="80" height="80" viewBox="0 0 80 80" fill="none" xmlns="http://www.w3.org/2000/svg">
<path d="M40.0318 75.8036C37.9318 75.8036 35.8651 75.1037 34.2318 73.7037L28.9651 69.2037C28.4318 68.737 27.0984 68.2703 26.3984 68.2703H20.5651C15.6318 68.2703 11.6318 64.2703 11.6318 59.337V53.637C11.6318 52.937 11.1651 51.6036 10.7318 51.1036L6.19844 45.7703C3.4651 42.537 3.4651 37.4703 6.19844 34.2036L10.7318 28.8703C11.1651 28.3703 11.6318 27.037 11.6318 26.337V20.6703C11.6318 15.737 15.6318 11.737 20.5651 11.737H26.3318C27.0318 11.737 28.3318 11.237 28.8984 10.7703L34.1651 6.27031C37.4318 3.50365 42.5318 3.50365 45.7984 6.27031L51.0651 10.7703C51.5984 11.237 52.9651 11.7036 53.6651 11.7036H59.3318C64.2651 11.7036 68.2651 15.7036 68.2651 20.637V26.3036C68.2651 27.0036 68.7651 28.3036 69.2318 28.8703L73.7318 34.137C76.5318 37.437 76.4984 42.537 73.7318 45.7703L69.2318 51.037C68.7651 51.6036 68.2984 52.9036 68.2984 53.6036V59.2703C68.2984 64.2037 64.2984 68.2036 59.3651 68.2036H53.6984C52.9984 68.2036 51.6984 68.7037 51.0984 69.1703L45.8318 73.6703C44.1984 75.1037 42.0984 75.8036 40.0318 75.8036ZM20.5651 16.737C18.3984 16.737 16.6318 18.5036 16.6318 20.6703V26.337C16.6318 28.237 15.7651 30.637 14.5318 32.1036L9.99844 37.437C8.8651 38.8036 8.8651 41.2036 9.99844 42.537L14.4984 47.837C15.6984 49.2037 16.5984 51.7036 16.5984 53.6036V59.3037C16.5984 61.4703 18.3651 63.237 20.5318 63.237H26.3318C28.1984 63.237 30.6651 64.137 32.1318 65.3703L37.4318 69.9036C38.7984 71.0703 41.1651 71.0703 42.5651 69.9036L47.8318 65.4037C49.3318 64.137 51.7651 63.2703 53.6318 63.2703H59.2984C61.4651 63.2703 63.2318 61.5036 63.2318 59.337V53.6703C63.2318 51.8036 64.1318 49.3703 65.3651 47.8703L69.8984 42.5703C71.0651 41.2037 71.0651 38.8036 69.8984 37.437L65.3984 32.1703C64.1318 30.6703 63.2651 28.237 63.2651 26.3703V20.6703C63.2651 18.5036 61.4984 16.737 59.3318 16.737H53.6651C51.7651 16.737 49.2984 15.837 47.8318 14.6036L42.5318 10.0703C41.1651 8.90365 38.7984 8.90365 37.3984 10.0703L32.1651 14.6036C30.6651 15.837 28.2318 16.737 26.3318 16.737H20.5651Z" fill="#FFDB54"/>
<path d="M49.3646 54.1339L39.9979 33.0339L30.6312 54.1339L26.0312 52.1005L37.6979 25.8672H42.2979L53.9646 52.1005L49.3646 54.1339Z" fill="#FFDB54"/>
<path d="M45.8307 46.8672H34.1641C32.7974 46.8672 31.6641 45.7339 31.6641 44.3672C31.6641 43.0005 32.7974 41.8672 34.1641 41.8672H45.8307C47.1974 41.8672 48.3307 43.0005 48.3307 44.3672C48.3307 45.7339 47.1974 46.8672 45.8307 46.8672Z" fill="#FFDB54"/>
</svg>
