<svg width="80" height="80" viewBox="0 0 80 80" fill="none" xmlns="http://www.w3.org/2000/svg">
<path d="M31.6013 68.9646C29.9346 68.9646 28.768 68.3979 28.068 67.8646C26.7346 66.8979 24.668 64.3979 25.968 58.7979L27.8679 50.5979C28.0346 49.8979 27.6679 48.6312 27.1679 48.0979L20.5346 41.4646C17.0346 37.9646 17.3346 34.9313 17.8013 33.4313C18.2679 31.9313 19.8012 29.2979 24.6679 28.4646L33.168 27.0646C33.8013 26.9646 34.8346 26.1979 35.1013 25.6313L39.8013 16.2312C42.0679 11.6979 45.0679 11.0312 46.6679 11.0312C48.2679 11.0312 51.2679 11.6979 53.5346 16.2312L58.2346 25.6313C58.5346 26.1979 59.5346 26.9646 60.1679 27.0646L68.668 28.4646C73.5346 29.2646 75.0679 31.9313 75.5346 33.4313C76.0013 34.9313 76.3013 37.9646 72.8013 41.4646L66.168 48.0979C65.668 48.5979 65.3013 49.8979 65.468 50.5979L67.3679 58.7979C68.6679 64.4313 66.6012 66.8979 65.2679 67.8646C63.9346 68.8313 60.968 70.0646 55.968 67.0979L48.0012 62.3646C47.3346 61.9646 45.9346 61.9646 45.2679 62.3646L37.3013 67.0979C35.0013 68.4979 33.068 68.9646 31.6013 68.9646ZM46.6679 16.0312C46.1346 16.0312 45.1679 16.6646 44.2679 18.4646L39.5679 27.8646C38.5679 29.8979 36.2013 31.6313 33.9679 31.9979L25.468 33.3979C23.568 33.7313 22.7013 34.4313 22.5346 34.9646C22.368 35.4979 22.6679 36.5646 24.0346 37.9313L30.668 44.5646C32.368 46.2646 33.268 49.3646 32.7346 51.6979L30.8346 59.8979C30.2679 62.2646 30.6346 63.5312 31.0012 63.8312C31.3679 64.0979 32.7012 64.0646 34.7679 62.7979L42.7679 58.0646C45.0012 56.7313 48.368 56.7313 50.568 58.0646L58.5346 62.7979C60.6346 64.0312 61.968 64.0979 62.3346 63.8312C62.7013 63.5646 63.0679 62.2979 62.5013 59.8979L60.6012 51.6979C60.0679 49.3312 60.9346 46.2646 62.6679 44.5646L69.3013 37.9313C70.668 36.5646 70.9679 35.4646 70.8012 34.9646C70.6346 34.4646 69.7679 33.7313 67.8679 33.3979L59.3679 31.9979C57.1346 31.6313 54.7679 29.8979 53.7679 27.8646L49.0679 18.4646C48.1679 16.6646 47.2013 16.0312 46.6679 16.0312Z" fill="#EA4600"/>
<path d="M26.6641 19.1641H6.66406C5.2974 19.1641 4.16406 18.0307 4.16406 16.6641C4.16406 15.2974 5.2974 14.1641 6.66406 14.1641H26.6641C28.0307 14.1641 29.1641 15.2974 29.1641 16.6641C29.1641 18.0307 28.0307 19.1641 26.6641 19.1641Z" fill="#EA4600"/>
<path d="M16.6641 65.8359H6.66406C5.2974 65.8359 4.16406 64.7026 4.16406 63.3359C4.16406 61.9693 5.2974 60.8359 6.66406 60.8359H16.6641C18.0307 60.8359 19.1641 61.9693 19.1641 63.3359C19.1641 64.7026 18.0307 65.8359 16.6641 65.8359Z" fill="#EA4600"/>
<path d="M9.9974 42.5H6.66406C5.2974 42.5 4.16406 41.3667 4.16406 40C4.16406 38.6333 5.2974 37.5 6.66406 37.5H9.9974C11.3641 37.5 12.4974 38.6333 12.4974 40C12.4974 41.3667 11.3641 42.5 9.9974 42.5Z" fill="#292D32"/>
</svg>
