<svg width="80" height="80" viewBox="0 0 80 80" fill="none" xmlns="http://www.w3.org/2000/svg">
<path d="M22.9297 63.0016C21.563 63.0016 20.4297 61.8682 20.4297 60.5016V53.6016C20.4297 52.2349 21.563 51.1016 22.9297 51.1016C24.2964 51.1016 25.4297 52.2349 25.4297 53.6016V60.5016C25.4297 61.9016 24.2964 63.0016 22.9297 63.0016Z" fill="#009F78"/>
<path d="M40 62.9974C38.6333 62.9974 37.5 61.8641 37.5 60.4974V46.6641C37.5 45.2974 38.6333 44.1641 40 44.1641C41.3667 44.1641 42.5 45.2974 42.5 46.6641V60.4974C42.5 61.8974 41.3667 62.9974 40 62.9974Z" fill="#009F78"/>
<path d="M57.0703 62.999C55.7036 62.999 54.5703 61.8656 54.5703 60.499V39.7656C54.5703 38.399 55.7036 37.2656 57.0703 37.2656C58.437 37.2656 59.5703 38.399 59.5703 39.7656V60.499C59.5703 61.899 58.4703 62.999 57.0703 62.999Z" fill="#009F78"/>
<path d="M22.9306 43.9327C21.7973 43.9327 20.7973 43.1661 20.4973 42.0327C20.164 40.6994 20.964 39.3327 22.3306 38.9994C34.5973 35.9327 45.3973 29.2327 53.6306 19.6661L55.164 17.8661C56.064 16.8327 57.6307 16.6994 58.6973 17.5994C59.7307 18.4994 59.864 20.0661 58.964 21.1327L57.4306 22.9327C48.5306 33.3327 36.7973 40.5661 23.5306 43.8661C23.3306 43.9327 23.1306 43.9327 22.9306 43.9327Z" fill="#009F78"/>
<path d="M57.0635 31.7333C55.6969 31.7333 54.5635 30.6 54.5635 29.2333V22H47.2969C45.9302 22 44.7969 20.8667 44.7969 19.5C44.7969 18.1333 45.9302 17 47.2969 17H57.0635C58.4302 17 59.5635 18.1333 59.5635 19.5V29.2667C59.5635 30.6333 58.4635 31.7333 57.0635 31.7333Z" fill="#009F78"/>
<path d="M49.9974 75.8307H29.9974C11.8974 75.8307 4.16406 68.0974 4.16406 49.9974V29.9974C4.16406 11.8974 11.8974 4.16406 29.9974 4.16406H49.9974C68.0974 4.16406 75.8307 11.8974 75.8307 29.9974V49.9974C75.8307 68.0974 68.0974 75.8307 49.9974 75.8307ZM29.9974 9.16406C14.6307 9.16406 9.16406 14.6307 9.16406 29.9974V49.9974C9.16406 65.3641 14.6307 70.8307 29.9974 70.8307H49.9974C65.3641 70.8307 70.8307 65.3641 70.8307 49.9974V29.9974C70.8307 14.6307 65.3641 9.16406 49.9974 9.16406H29.9974Z" fill="#009F78"/>
</svg>
